<svg width="27" height="24" viewBox="0 0 27 24" fill="none" xmlns="http://www.w3.org/2000/svg">
<path d="M25.7651 5.81639C25.4707 4.7078 24.6032 3.8347 23.5018 3.53841C21.5054 3 13.5 3 13.5 3C13.5 3 5.49466 3 3.4982 3.53841C2.39678 3.83475 1.52931 4.7078 1.23489 5.81639C0.699951 7.82578 0.699951 12.0182 0.699951 12.0182C0.699951 12.0182 0.699951 16.2106 1.23489 18.22C1.52931 19.3286 2.39678 20.1653 3.4982 20.4616C5.49466 21 13.5 21 13.5 21C13.5 21 21.5053 21 23.5018 20.4616C24.6032 20.1653 25.4707 19.3286 25.7651 18.22C26.3 16.2106 26.3 12.0182 26.3 12.0182C26.3 12.0182 26.3 7.82578 25.7651 5.81639ZM10.8818 15.8246V8.2118L17.5727 12.0183L10.8818 15.8246Z" fill="black"/>
</svg>
