<svg width="21" height="24" viewBox="0 0 21 24" fill="none" xmlns="http://www.w3.org/2000/svg">
<g clip-path="url(#clip0_46_1395)">
<path d="M10.5048 6.6094C7.52353 6.6094 5.11884 9.01409 5.11884 11.9953C5.11884 14.9766 7.52353 17.3813 10.5048 17.3813C13.486 17.3813 15.8907 14.9766 15.8907 11.9953C15.8907 9.01409 13.486 6.6094 10.5048 6.6094ZM10.5048 15.4969C8.57821 15.4969 7.00321 13.9266 7.00321 11.9953C7.00321 10.0641 8.57353 8.49377 10.5048 8.49377C12.436 8.49377 14.0063 10.0641 14.0063 11.9953C14.0063 13.9266 12.4313 15.4969 10.5048 15.4969ZM17.3673 6.38909C17.3673 7.08752 16.8048 7.64534 16.111 7.64534C15.4126 7.64534 14.8548 7.08284 14.8548 6.38909C14.8548 5.69534 15.4173 5.13284 16.111 5.13284C16.8048 5.13284 17.3673 5.69534 17.3673 6.38909ZM20.9344 7.66409C20.8548 5.98127 20.4704 4.49065 19.2376 3.26252C18.0095 2.0344 16.5188 1.65002 14.836 1.56565C13.1016 1.46721 7.90321 1.46721 6.16884 1.56565C4.49072 1.64534 3.00009 2.02971 1.76728 3.25784C0.534472 4.48596 0.154785 5.97659 0.0704101 7.6594C-0.0280273 9.39377 -0.0280273 14.5922 0.0704101 16.3266C0.150097 18.0094 0.534472 19.5 1.76728 20.7281C3.00009 21.9563 4.48603 22.3406 6.16884 22.425C7.90321 22.5235 13.1016 22.5235 14.836 22.425C16.5188 22.3453 18.0095 21.961 19.2376 20.7281C20.4657 19.5 20.8501 18.0094 20.9344 16.3266C21.0329 14.5922 21.0329 9.39846 20.9344 7.66409ZM18.6938 18.1875C18.3282 19.1063 17.6204 19.8141 16.697 20.1844C15.3141 20.7328 12.0329 20.6063 10.5048 20.6063C8.97665 20.6063 5.69072 20.7281 4.31259 20.1844C3.39384 19.8188 2.68603 19.111 2.31572 18.1875C1.76728 16.8047 1.89385 13.5235 1.89385 11.9953C1.89385 10.4672 1.77197 7.18127 2.31572 5.80315C2.68134 4.8844 3.38916 4.17659 4.31259 3.80627C5.6954 3.25784 8.97665 3.3844 10.5048 3.3844C12.0329 3.3844 15.3188 3.26252 16.697 3.80627C17.6157 4.1719 18.3235 4.87971 18.6938 5.80315C19.2423 7.18596 19.1157 10.4672 19.1157 11.9953C19.1157 13.5235 19.2423 16.8094 18.6938 18.1875Z" fill="black"/>
</g>
<defs>
<clipPath id="clip0_46_1395">
<rect width="21" height="24" fill="white"/>
</clipPath>
</defs>
</svg>
