<svg width="16" height="17" viewBox="0 0 16 17" fill="none" xmlns="http://www.w3.org/2000/svg">
<path d="M11.7419 11.1706C12.7102 9.84933 13.1439 8.21113 12.9562 6.58379C12.7685 4.95645 11.9733 3.45998 10.7297 2.39377C9.48604 1.32756 7.88567 0.770242 6.24876 0.833315C4.61184 0.896388 3.05911 1.5752 1.90119 2.73395C0.743273 3.89269 0.0655718 5.44592 0.00366997 7.08287C-0.0582319 8.71983 0.500231 10.3198 1.56733 11.5627C2.63443 12.8056 4.13147 13.5997 5.75894 13.7862C7.38641 13.9727 9.0243 13.5379 10.3449 12.5686H10.3439C10.3739 12.6086 10.4059 12.6466 10.4419 12.6836L14.2919 16.5336C14.4794 16.7213 14.7338 16.8267 14.9991 16.8268C15.2643 16.8269 15.5188 16.7216 15.7064 16.5341C15.8941 16.3466 15.9995 16.0923 15.9996 15.827C15.9997 15.5617 15.8944 15.3073 15.7069 15.1196L11.8569 11.2696C11.8212 11.2334 11.7827 11.2 11.7419 11.1696V11.1706ZM11.9999 7.32664C11.9999 8.04891 11.8577 8.76411 11.5813 9.4314C11.3049 10.0987 10.8997 10.705 10.389 11.2157C9.87829 11.7264 9.27197 12.1316 8.60468 12.408C7.93739 12.6844 7.22219 12.8266 6.49992 12.8266C5.77765 12.8266 5.06245 12.6844 4.39516 12.408C3.72787 12.1316 3.12156 11.7264 2.61083 11.2157C2.10011 10.705 1.69498 10.0987 1.41858 9.4314C1.14218 8.76411 0.999921 8.04891 0.999921 7.32664C0.999921 5.86795 1.57938 4.469 2.61083 3.43755C3.64228 2.4061 5.04123 1.82664 6.49992 1.82664C7.95861 1.82664 9.35756 2.4061 10.389 3.43755C11.4205 4.469 11.9999 5.86795 11.9999 7.32664Z" fill="white"/>
</svg>
